<?xml version="1.0" encoding="UTF-8"?>
<svg width="90px" height="90px" viewBox="0 0 90 90" version="1.1" xmlns="http://www.w3.org/2000/svg" xmlns:xlink="http://www.w3.org/1999/xlink">
    <!-- Generator: Sketch 52.5 (67469) - http://www.bohemiancoding.com/sketch -->
    
    
    <g stroke="none" stroke-width="1" fill="none" fill-rule="evenodd">
        <g transform="translate(-433.000000, -702.000000)" stroke="#999999">
            <g transform="translate(369.000000, 690.000000)">
                <g transform="translate(64.000000, 12.000000)">
                    <g>
                        <g>
                            <g>
                                <g transform="translate(14.750000, 11.375000)" fill-rule="nonzero" stroke-width="3">
                                    <circle cx="30.25" cy="20.625" r="11"></circle>
                                    <path d="M0.25,55.625 C2.59392676,46.394092 10.270092,39.625 19.3779655,39.625 L41.2964423,39.625 C49.8031542,39.625 57.0609192,45.5299998 59.8917081,53.8305668 C60.0203856,54.2078809 60.1399158,54.5901448 60.25,54.9770291"></path>
                                    <path d="M36,50.5379548 L43.5,50.5379548"></path>
                                    <path d="M2.5,0.625 L58,0.625 C59.2426407,0.625 60.25,1.63235931 60.25,2.875 L60.25,64.375 C60.25,65.6176407 59.2426407,66.625 58,66.625 L2.5,66.625 C1.25735931,66.625 0.25,65.6176407 0.25,64.375 L0.25,2.875 C0.25,1.63235931 1.25735931,0.625 2.5,0.625 Z"></path>
                                </g>
                            </g>
                        </g>
                    </g>
                </g>
            </g>
        </g>
    </g>
</svg>