<?xml version="1.0" encoding="UTF-8"?>
<svg width="90px" height="90px" viewBox="0 0 90 90" version="1.1" xmlns="http://www.w3.org/2000/svg" xmlns:xlink="http://www.w3.org/1999/xlink">
    <!-- Generator: Sketch 52.5 (67469) - http://www.bohemiancoding.com/sketch -->
    
    
    <g stroke="none" stroke-width="1" fill="none" fill-rule="evenodd">
        <g transform="translate(-1191.000000, -702.000000)" stroke="#999999">
            <g transform="translate(369.000000, 690.000000)">
                <g transform="translate(822.000000, 12.000000)">
                    <g>
                        <g>
                            <g>
                                <g transform="translate(16.000000, 12.000000)" fill-rule="nonzero" stroke-width="3">
                                    <path d="M2,0 L58,-8.8817842e-16 C59.1045695,-1.09108455e-15 60,0.8954305 60,2 L60,47.5700083 C60,48.1013666 59.7885526,48.6108836 59.4123242,48.9861087 L42.938402,65.4161004 C42.5634839,65.7900187 42.0555856,66 41.5260778,66 L2,66 C0.8954305,66 1.3527075e-16,65.1045695 0,64 L0,2 C-1.3527075e-16,0.8954305 0.8954305,2.02906125e-16 2,0 Z"></path>
                                    <polyline points="10 33.3846154 15.118261 38 24 28"></polyline>
                                    <polyline points="10 51.3846154 15.118261 56 24 46"></polyline>
                                    <polyline points="10 14.3846154 15.118261 19 24 9"></polyline>
                                    <polyline points="42 67 42 49 60 49"></polyline>
                                    <path d="M29,36.9636482 L51.9226021,36.9636482"></path>
                                    <path d="M29,11.4818241 L51.9226021,11.4818241"></path>
                                    <path d="M29,17.4818241 L51.9226021,17.4818241"></path>
                                    <path d="M29,30.9636482 L51.9226021,30.9636482"></path>
                                </g>
                            </g>
                        </g>
                    </g>
                </g>
            </g>
        </g>
    </g>
</svg>