<svg height="50" viewBox="0 0 50 50" width="50" xmlns="http://www.w3.org/2000/svg"><g fill="none" fill-rule="evenodd"><path d="m25 0c13.807 0 25 11.193 25 25s-11.193 25-25 25-25-11.193-25-25 11.193-25 25-25" fill="#bfbfbf"/><path d="m41.4399 43.8301c-4.39 3.84-10.15 6.17-16.44 6.17-6.22 0-11.93-2.28-16.3-6.05 2.78-1.29 5.56-2.42 7.4-3.25 1.24-.56 1.55-1.35 1.66-1.7.39-2.15.23-2.7.23-7.79-2.61-1.55-4.57-4.83-4.76-6.67s.65-2.11 1.65-2.11c.05-1.26 0-1.84-.2-2.71-.23-.97-.49-1.47-.56-2.61-.26-4.34 3.89-9.38 10.64-9.71v-.02h.72v.01c9.12.32 11.33 6.66 11.14 9.72-.06 1.14-.32 1.64-.55 2.61-.2.87-.25 1.45-.2 2.71.99 0 1.83.27 1.64 2.11-.18 1.84-2.13 5.12-4.73 6.67 0 5.09-.15 5.64.23 7.79.11.35.42 1.14 1.65 1.7 1.77.8 4.27 1.88 6.78 3.13" fill="#fff"/><path d="m25 0c-13.81 0-25 11.19-25 25 0 7.58 3.37 14.37 8.7 18.95 4.37 3.77 10.08 6.05 16.3 6.05 6.29 0 12.05-2.33 16.44-6.17 5.25-4.58 8.56-11.32 8.56-18.83 0-13.81-11.19-25-25-25m0 1c13.233 0 24 10.767 24 24 0 6.932-2.995 13.521-8.218 18.077-4.367 3.819-9.971 5.923-15.782 5.923-5.749 0-11.306-2.062-15.648-5.809-5.308-4.56-8.352-11.191-8.352-18.191 0-13.233 10.767-24 24-24" fill="#d3d3d3"/></g></svg>