<svg xmlns="http://www.w3.org/2000/svg" width="114" height="28" viewBox="0 0 114 28">
    <g fill="#FFF" fill-rule="evenodd">
        <text font-family="PingFangSC-Medium, PingFang SC" font-size="18" font-weight="400">
            <tspan x="42" y="21">大象云电</tspan>
        </text>
        <path fill-rule="nonzero" d="M13.626 27.995l6.886-10.268c.08-.133.136-.264.174-.402l.002-.008a1.566 1.566 0 0 0-1.092-1.908l-.008-.002a1.544 1.544 0 0 0-.43-.053H8.815c-.86 0-1.556.698-1.556 1.56 0 .86.697 1.559 1.556 1.559h7.631l-6.216 9.014C4.33 25.84 0 20.426 0 14 0 6.268 6.268 0 14 0c.125 0 .25.002.374.005L7.488 10.273c-.082.135-.139.27-.176.41l-.002.009a1.564 1.564 0 0 0 1.11 1.903c.138.037.28.054.422.051h10.343c.86 0 1.556-.698 1.556-1.56 0-.86-.697-1.559-1.556-1.559h-7.631L17.77.513C23.67 2.16 28 7.574 28 14c0 7.732-6.268 14-14 14-.125 0-.25-.002-.374-.005z"/>
    </g>
</svg>
