<svg viewBox="0 0 127 31" xmlns="http://www.w3.org/2000/svg"><g fill="none" fill-rule="evenodd" transform="translate(-.090909 .25)"><g fill="#333"><path d="m110.284909 8.6735c-.6425-.4225-1.3875-.6375-2.21625-.6375-.885 0-1.7225.2475-2.49.73375-.6175.39125-1.155.9325-1.6075 1.615-.1925-.44125-.4075-.79625-.64875-1.07375-.32875-.38125-.76625-.69375-1.3-.92875-.52875-.23-1.09-.34625-1.665-.34625-.8537499 0-1.6774999.23875-2.4549999.7075-.38875.24125-.76.56875-1.12625.99125v-1.4075h-.28c-.0525 0-.1175-.0025-.19-.005-.0975-.00375-.20625-.00625-.31375-.00625-.18625 0-.32375.01-.43625.03125-.3175.0625-.63.3175-.745.6075-.0775.19375-.07125.355-.06625.49625.00125.03625.00375.07625.00375.1175.00125 1.62125.0075 3.24625.01375 4.87375.0075 1.81.015 3.62125.015 5.42625v.2825h1.99875v-5.05375c0-1.36125.135-2.38.40125-3.0275.25875-.635.6475-1.12875 1.19125-1.50625.53875-.37375 1.1025-.555 1.7199999-.555.52125 0 .97125.13125 1.34.3875.36625.25625.62875.6025.77875 1.03125.1575.455.23875 1.35625.23875 2.6775v6.04625h2v-4.69c0-1.57125.12875-2.7.3825-3.355.255-.64625.64-1.145 1.18125-1.52875.535-.3825 1.11375-.56875 1.76875-.56875.52 0 .97.12375 1.33875.36625.37125.24625.62625.56.7775.95625.11.29125.24125.94375.24125 2.39125v6.42875h2.0425v-6.42875c0-1.46-.14875-2.53125-.45625-3.275-.30875-.75-.79125-1.34625-1.4375-1.77375"/><path d="m120.032284 9.718375c.165 0 .33375.01.50125.02875.60875.07125 1.14625.2575 1.6025.555.37625.245.73875.61125 1.07875 1.09l-7.155 2.3575c.01125-.83625.1725-1.53.4825-2.06625.48625-.84625 1.22125-1.43625 2.18375-1.75375.4275-.14.865-.21125 1.30625-.21125zm4.345 4.34875-.05875.26c-.18.79625-.39125 1.405-.63 1.80625-.23125.39125-.56125.76125-.9825 1.1-.41375.33-.88125.58375-1.38875.75-1.035.34125-2.03125.2625-2.9775-.23625-.87625-.4625-1.525-1.2075-1.9375-2.2175l9.4925-3.1275-.09125-.2675c-.5075-1.495-1.3375-2.62875-2.4675-3.3725-1.59125-1.055-3.36125-1.28125-5.235-.66375-1.82625.6025-3.07125 1.79875-3.7025 3.55375-.49625 1.37375-.515 2.77875-.055 4.17625.49 1.48375 1.445 2.665 2.8425 3.505.83.5025 1.74125.75625 2.71.75625.6725 0 1.38625-.12375 2.12375-.36625.80125-.26375 1.495-.63125 2.06125-1.0925.56125-.4575 1.02875-1.0175 1.39-1.66375.35875-.6475.6075-1.425.7425-2.31l.0425-.27375z"/><path d="m53.7932841 6.92175v13.185h1.82v-14.12l-.90125-.0025c-.59625 0-.91875.48375-.91875.9375"/><path d="m92.6506591 8.907875c-.055-.235-.15625-.4075-.32875-.56125-.0775-.07125-.18-.12125-.27625-.16625-.0675-.03-.10625-.03875-.17-.05375l-.0275-.00625c-.10625-.02375-.25125-.02625-.3625-.00875-.05875.00875-.14625.0275-.23625.06375-.12.05-.23625.13375-.28125.1725-.0925.07875-.17875.22625-.2225.30875-.06.1125-.1025.215-.14875.32375l-.0175.045c-.0675.1625-1.64625 3.98875-2.59125 6.02375-.08.17-.15125.3325-.22.49-.1075.24625-.21125.4825-.335.7225-.065-.12375-.11625-.24125-.17875-.3825-.04125-.09125-.0875-.1925-.1425-.31-.54125-1.16-1.6225-3.7025-2.26875-5.22125-.24625-.58125-.43625-1.025-.51375-1.205l-.01375-.03125c-.07125-.175-.14375-.355-.37625-.50875-.18125-.12-.46375-.135-.68125-.0425-.25625.10875-.35625.315-.4425.49375l-.03.0625s-2.42875 5.495-2.99875 6.77875c-.03375.075-.065.1475-.095.22-.0225-.04875-.04375-.09875-.0675-.15-.14875-.34125-.3925-.90625-.675-1.56l-.4325-1.00125c-.67-1.5525-1.3375-3.1-2-4.6475-.06875-.16125-.1825-.29625-.26625-.38375-.06375-.065-.14125-.12-.245-.17375-.105-.055-.2175-.085-.295-.09875-.07125-.01375-.27375-.02-.41875.015-.18125.04375-.32125.14375-.3725.18125-.13375.09625-.2125.21375-.27875.325-.05875.10125-.0975.22375-.115.35875-.05375.31.0675.5875.16375.81125l.525 1.22875c.44875 1.05.8975 2.1 1.3575 3.1525.2975.6825.60625 1.40375.9175 2.1275.25.58375.5 1.16875.74875 1.74l.15625.36c.20375.4725.40125.9275.6075 1.38125.0775.16875.15875.26875.285.34625.055.03375.125.07125.2375.1.0425.00875.09125.01625.13625.0175h.0175c.13125 0 .27-.0375.3825-.10375.11125-.0625.15375-.10875.215-.1925.035-.0475.075-.11875.10625-.1825.31875-.69125.62375-1.39125.945-2.1325.13-.29875.2625-.6025.39875-.91125.16125-.3675.32875-.7425.5-1.11875.32875-.7275.6675-1.47875.9525-2.185.0825-.2075.18625-.45.27625-.64375.05875-.13125.10875-.18875.135-.2125.0275.025.08375.09.14875.2425l2.9925 6.93875.0275.05c.1325.19625.20125.2875.49.41.08.02875.16875.03125.20375.03125l.05-.0025c.245-.02625.3625-.1525.46-.28.09625-.12375.4325-.70375.48375-.8125.28375-.605.77375-1.82 1.16625-2.79625.11125-.275.21625-.535.30625-.7575.48375-1.1875 1.04875-2.44 1.59625-3.6525.26875-.595.53625-1.18375.79-1.76125l.04375-.09625c.19625-.4375.305-.7025.32375-.84875.005-.04.005-.0725.005-.08 0-.0425-.00625-.12125-.01125-.1575-.0025-.02875-.0075-.0525-.015-.0825"/><path d="m58.2012841 6.92175v13.185h1.82125v-14.12l-.90125-.0025c-.59625 0-.92.48375-.92.9375"/><path d="m33.4405341 6.086875h-.095c-.13 0-.25875.00375-.41625.05125-.14625.04375-.2525.1225-.3475.20125-.175.1475-.325.41625-.34875.625-.01625.155-.00875.345-.0075.35125l-.025 12.79125h1.8775v-6.69875h5.3175v-1.8675h-5.3175l-.00125-3.57375 5.31875-.0025v-1.86625h-.28125s-5.1275-.01125-5.67375-.01125"/><path d="m49.8809091 15.17125c-.15375.70875-.46625 1.32375-.9275 1.8225-.4625.49375-1.03.83875-1.68875 1.02625-.66.19-1.31625.195-1.95625.0175-.655-.18375-1.21375-.53125-1.71125-1.06625-.4975-.52625-.84875-1.1625-1.04625-1.89125-.31-1.13875-.2125-2.18375.29625-3.19375.505-1.00125 1.2375-1.6275 2.2375-1.9125.32125-.09125.6425-.13875.955-.13875.64375 0 1.2875.19875 1.9125.58875.94875.5925 1.56 1.43375 1.86875 2.57125.1975.7225.2175 1.455.06 2.17625m-.76125-6.355c-1.40375-.94625-2.9425-1.1925-4.55625-.73125-1.625.46375-2.81375 1.49-3.53125 3.05125-.6525 1.405-.76875 2.8975-.35 4.4375.4225 1.55875 1.31125 2.79125 2.64125 3.6625.88125.5775 1.83625.87 2.835.87.52125 0 1.06625-.07875 1.6175-.23625 1.60375-.4575 2.7725-1.43375 3.4775-2.8975.695-1.4525.83375-2.97625.41125-4.53-.42125-1.54875-1.2775-2.7675-2.545-3.62625"/><path d="m71.4324091 15.109c-.15625.72-.4725 1.3425-.94125 1.84875-.46875.50125-1.04375.85125-1.71125 1.0425-.67125.19125-1.3375.1975-1.9875.01625-.6625-.185-1.23-.5375-1.73625-1.08125-.5025-.535-.86-1.18-1.06-1.91875-.315-1.15625-.21625-2.21625.30125-3.24.5125-1.01625 1.255-1.65 2.26875-1.94.32625-.09375.6525-.14.97-.14.6525 0 1.30625.2 1.94125.59625.96125.60125 1.58125 1.455 1.895 2.6075.19875.73375.22 1.47625.06 2.20875m-.7775-6.4375c-1.42125-.96-2.98-1.20875-4.61375-.7425-1.64625.47-2.85125 1.51125-3.57875 3.09125-.65875 1.4225-.77875 2.935-.35375 4.495.43 1.58 1.32875 2.8275 2.67625 3.71.8925.585 1.85875.88125 2.87125.88125h.00125c.5275 0 1.07875-.08 1.6375-.24 1.62375-.46375 2.8075-1.45 3.52125-2.93375.705-1.47125.845-3.015.41625-4.59-.425-1.5675-1.2925-2.80375-2.5775-3.67125"/></g><path d="m7.89965909 10.638875-3.65.00125-.65125 2.695 3.4625.005s-.02125.04-.315 1.07875c-.75625 2.68625-1.53875 5.53-2.26 8.1475-.7275-.695-1.44625-1.48-2.0025-2.3025-2.005-2.97-2.625-6.40625-2.03125-9.61.82875-4.47125 3.99625-8.4775 8.84125-10.0075 2.06500001-.6525 4.33000001-.7925 6.62750001-.35625 1.125.2125 2.355.75125 3.36375 1.29375.13125.07.215.12125.25.13125-2.62375-.335-5.26.2975-7.39125 1.9675-2.17250001 1.70375-3.25250001 4.45125-4.24375001 6.95625zm5.46025001-.01225c.685-2.28375 2.01125-5.46875 4.29-6.52375 3.2825-1.52 5.43625.11 6.81875 2.5575.69625 1.23375 1.1775 2.63 1.4325 3.96375zm-.84475 2.70875 13.56875-.01c-.075 4.94125-3.02375 9.21625-7.29 11.29-.92375.45-1.91625.765-2.945.9975-.72625.16375-1.475.22125-2.24.26625l-5.13250001 4.6 1.32125-5.6625z" fill="#ff6200"/></g></svg>